PathFileType	4	(X/Y/Z)	C:/Users/Rosti/Documents/GitHub/TechForParalysis/Code/Model/04122019 - Marker Volunteer01/Rosti Data/New Session 103.trc	
DataRate	CameraRate	NumFrames	NumMarkers	Units	OrigDataRate	OrigDataStartFrame	OrigNumFrames	
100.00	100.00	18	14	m	100.00	543	620	
Frame#	Time	C7			PX			T8			IJ			SC			AC			AI			TS			AA			GH			LE			ME			US			RS			
		X1	Y1	Z1	X2	Y2	Z2	X3	Y3	Z3	X4	Y4	Z4	X5	Y5	Z5	X6	Y6	Z6	X7	Y7	Z7	X8	Y8	Z8	X9	Y9	Z9	X10	Y10	Z10	X11	Y11	Z11	X12	Y12	Z12	X13	Y13	Z13	X14	Y14	Z14	

543	5.42	0.0317287	0.09894	0.165552	-0.0052015	-0.14136	-0.070123	0.0272572	-0.11607	0.23158	0	0	0	0.0253204	0.00758	0.0039	0.1756018	0.03869	0.063298	0.1135718	0.01909	0.197513	0.1102397	-0.09951	0.228993	0.2279628	-0.0069	0.130213	0.2379628	0.00554	0.089067	0.2675928	-0.28371	0.007845	0.1798028	-0.30178	-0.019859	0.2907208	-0.540862	-0.1063	0.3552618	-0.503785	-0.12603
544	5.43	0.0316875	0.0989	0.165587	-0.0051913	-0.14138	-0.070147	0.0271941	-0.11614	0.231594	0	0	0	0.0252999	0.00755	0.003909	0.1755815	0.03867	0.063326	0.1135375	0.01903	0.197534	0.1102074	-0.09957	0.229007	0.2279215	-0.00694	0.130247	0.2379415	0.00552	0.089113	0.2675695	-0.28375	0.007936	0.1798885	-0.30182	-0.019808	0.2907545	-0.540896	-0.106274	0.3553015	-0.503822	-0.12594
545	5.44	0.0316362	0.09886	0.165618	-0.0051785	-0.1414	-0.070167	0.0271259	-0.11621	0.231614	0	0	0	0.025258	0.0075	0.003936	0.1755674	0.03864	0.063356	0.1135014	0.01897	0.197552	0.1101616	-0.09962	0.229062	0.2278764	-0.00698	0.130285	0.2379154	0.00549	0.089172	0.2675314	-0.2838	0.008025	0.1799464	-0.30186	-0.019768	0.2907654	-0.540939	-0.106246	0.3553304	-0.503866	-0.125847
546	5.45	0.0315804	0.09882	0.165642	-0.0051684	-0.14143	-0.070182	0.0270554	-0.11628	0.231637	0	0	0	0.0252038	0.00743	0.003985	0.1755555	0.03861	0.063385	0.1134625	0.0189	0.197568	0.1101073	-0.09965	0.229145	0.2278325	-0.00702	0.130329	0.2378865	0.00545	0.089235	0.2674915	-0.28384	0.008103	0.1799855	-0.30189	-0.019756	0.2907845	-0.540971	-0.106198	0.3553535	-0.503913	-0.125753
547	5.46	0.0315295	0.09877	0.16566	-0.0051636	-0.14148	-0.070193	0.0269861	-0.11636	0.231661	0	0	0	0.0251521	0.00735	0.004046	0.1755417	0.03857	0.063414	0.1134207	0.01882	0.197586	0.1100512	-0.0997	0.229234	0.2277887	-0.00707	0.130376	0.2378537	0.0054	0.089293	0.2674607	-0.28389	0.008162	0.1800187	-0.30193	-0.019774	0.2908317	-0.540995	-0.106122	0.3553747	-0.503968	-0.125663
548	5.47	0.0314913	0.09871	0.165682	-0.0051618	-0.14152	-0.070203	0.026921	-0.11643	0.231685	0	0	0	0.0251207	0.00727	0.004098	0.1755193	0.03853	0.063448	0.1133763	0.01874	0.19761	0.1100002	-0.09975	0.229304	0.2277453	-0.00713	0.13042	0.2378223	0.00535	0.089345	0.2674423	-0.28393	0.008202	0.1800543	-0.30197	-0.01981	0.2908723	-0.541012	-0.106045	0.3553953	-0.504019	-0.125578
549	5.48	0.0314657	0.09866	0.165712	-0.0051586	-0.14155	-0.070217	0.0268629	-0.11651	0.231707	0	0	0	0.0251149	0.00721	0.004128	0.1754904	0.0385	0.063486	0.1133314	0.01867	0.197638	0.1099605	-0.09981	0.229335	0.2277064	-0.00718	0.130461	0.2377974	0.0053	0.089393	0.2674314	-0.28397	0.008224	0.1800944	-0.302	-0.019845	0.2908874	-0.541031	-0.105987	0.3554144	-0.504065	-0.125499
550	5.49	0.031445	0.09862	0.165747	-0.0051509	-0.14159	-0.070235	0.0268135	-0.11659	0.231728	0	0	0	0.0251244	0.00716	0.004134	0.1754599	0.03847	0.06353	0.1132899	0.01859	0.197664	0.1099357	-0.09989	0.229321	0.2276739	-0.00724	0.130502	0.2377819	0.00526	0.089444	0.2674199	-0.28401	0.008239	0.1801329	-0.30204	-0.019858	0.2908849	-0.541055	-0.105939	0.3554329	-0.504106	-0.125423
551	5.5	0.0314181	0.09857	0.16578	-0.005139	-0.14162	-0.070257	0.0267734	-0.11666	0.231746	0	0	0	0.0251363	0.00711	0.004131	0.1754368	0.03843	0.063575	0.1132548	0.01852	0.197686	0.1099255	-0.09998	0.22927	0.2276498	-0.00729	0.130546	0.2377758	0.00523	0.089502	0.2674068	-0.28404	0.008253	0.1801598	-0.30208	-0.019836	0.2908808	-0.54108	-0.105892	0.3554498	-0.504145	-0.125349
552	5.51	0.0313734	0.09852	0.1658	-0.0051251	-0.14165	-0.070278	0.0267421	-0.11673	0.231761	0	0	0	0.025145	0.00707	0.004127	0.1754233	0.0384	0.063619	0.1132283	0.01845	0.197706	0.1099245	-0.10007	0.229198	0.2276323	-0.00732	0.130586	0.2377733	0.00522	0.089564	0.2673963	-0.28405	0.008267	0.1801653	-0.3021	-0.019785	0.2908843	-0.541098	-0.105847	0.3554653	-0.504174	-0.12528
553	5.52	0.0313042	0.09847	0.165805	-0.005109	-0.14168	-0.070295	0.0267185	-0.1168	0.231774	0	0	0	0.0251537	0.00704	0.004129	0.1754148	0.03836	0.063667	0.1132105	0.01838	0.197728	0.1099252	-0.10016	0.22913	0.2276188	-0.00736	0.13062	0.2377758	0.0052	0.08962	0.2673958	-0.28406	0.008282	0.1801508	-0.30212	-0.019724	0.2909018	-0.541111	-0.10581	0.3554828	-0.504203	-0.125218
554	5.53	0.0312104	0.09843	0.165796	-0.0050901	-0.14169	-0.070306	0.0267003	-0.11685	0.231784	0	0	0	0.0251689	0.00703	0.004133	0.175404	0.03833	0.06372	0.1131946	0.01832	0.197755	0.1099211	-0.10023	0.229084	0.227609	-0.00739	0.13065	0.237776	0.00519	0.089658	0.267404	-0.28407	0.008298	0.18013	-0.30213	-0.019671	0.290931	-0.541105	-0.10579	0.355504	-0.504222	-0.12517
555	5.54	0.0311001	0.0984	0.165784	-0.0050708	-0.1417	-0.070313	0.0266856	-0.11689	0.231792	0	0	0	0.0251906	0.00705	0.004135	0.175387	0.03831	0.06378	0.1131754	0.01828	0.197791	0.1099091	-0.10028	0.229069	0.227596	-0.00741	0.130686	0.237774	0.00518	0.089683	0.267416	-0.28407	0.008314	0.180125	-0.30212	-0.019635	0.290964	-0.541084	-0.105788	0.355533	-0.504227	-0.125139
556	5.55	0.0309855	0.09836	0.165777	-0.0050558	-0.1417	-0.070322	0.026672	-0.11693	0.2318	0	0	0	0.0252096	0.00708	0.004135	0.1753659	0.03828	0.063843	0.1131475	0.01825	0.197835	0.1098877	-0.10031	0.229087	0.2275749	-0.00744	0.13073	0.2377709	0.00517	0.089709	0.2674289	-0.28407	0.008323	0.1801449	-0.30211	-0.019628	0.2909909	-0.541063	-0.105804	0.3555719	-0.504222	-0.125129
557	5.56	0.0308766	0.09833	0.16578	-0.0050471	-0.14168	-0.070334	0.0266576	-0.11694	0.231807	0	0	0	0.0252126	0.00713	0.00414	0.1753483	0.03829	0.063905	0.1131083	0.01823	0.197884	0.1098557	-0.10031	0.229136	0.2275453	-0.00745	0.130783	0.2377653	0.00518	0.089751	0.2674383	-0.28406	0.008318	0.1801803	-0.30208	-0.019657	0.2910003	-0.54102	-0.105843	0.3556193	-0.504181	-0.125137
558	5.57	0.0307817	0.09831	0.165795	-0.0050419	-0.14166	-0.070351	0.0266418	-0.11696	0.231817	0	0	0	0.0251962	0.00717	0.004155	0.1753435	0.03833	0.063969	0.1130594	0.01822	0.197934	0.1098126	-0.1003	0.229212	0.2275115	-0.00745	0.130843	0.2377545	0.00519	0.089815	0.2674435	-0.28403	0.008302	0.1802115	-0.30203	-0.019723	0.2909875	-0.540973	-0.105916	0.3556765	-0.504122	-0.125159
559	5.58	0.0307052	0.09828	0.16582	-0.0050362	-0.14164	-0.07037	0.0266241	-0.11695	0.231829	0	0	0	0.02517	0.0072	0.004176	0.175349	0.03842	0.064034	0.1130032	0.01822	0.197985	0.1097584	-0.10027	0.229308	0.227473	-0.00743	0.130908	0.237736	0.00522	0.089898	0.267454	-0.28399	0.008285	0.180224	-0.30196	-0.019812	0.290969	-0.540908	-0.106017	0.355742	-0.504039	-0.12519
560	5.59	0.0306476	0.09827	0.16585	-0.0050276	-0.14161	-0.070383	0.0266054	-0.11694	0.231846	0	0	0	0.025149	0.00722	0.004197	0.1753594	0.03855	0.064098	0.1129415	0.01823	0.198035	0.1096958	-0.10023	0.229413	0.2274274	-0.00741	0.13098	0.2377134	0.00524	0.08999	0.2674754	-0.28393	0.008281	0.1802184	-0.30186	-0.019909	0.2909784	-0.540819	-0.106125	0.3558184	-0.503939	-0.125224
